<svg width="250" height="150" viewBox="0 0 250 150" fill="none" xmlns="http://www.w3.org/2000/svg">
<path d="M133.333 70.3125C133.333 100.731 108.283 125.391 77.3811 125.391C46.4794 125.391 21.4287 100.731 21.4287 70.3125C21.4287 39.8937 46.4794 15.2344 77.3811 15.2344C108.283 15.2344 133.333 39.8937 133.333 70.3125ZM53.8978 70.3125C53.8978 83.0793 64.4116 93.4289 77.3811 93.4289C90.3506 93.4289 100.864 83.0793 100.864 70.3125C100.864 57.5457 90.3506 47.1961 77.3811 47.1961C64.4116 47.1961 53.8978 57.5457 53.8978 70.3125Z" fill="#014739"/>
<path fill-rule="evenodd" clip-rule="evenodd" d="M136.905 125.391C191.476 125.391 235.715 100.994 235.715 70.8984C235.715 40.8032 191.476 16.4062 136.905 16.4062C136.905 16.4062 136.905 16.4063 136.905 16.4063L136.905 125.391Z" fill="#014739"/>
<path d="M156.21 60.5965C154.867 60.5965 153.693 60.3311 152.688 59.8005C151.683 59.2699 150.898 58.536 150.334 57.5989C149.781 56.6618 149.504 55.5836 149.504 54.3642C149.504 53.1449 149.781 52.0666 150.334 51.1295C150.898 50.1924 151.683 49.4586 152.688 48.9279C153.704 48.3973 154.878 48.132 156.21 48.132C157.543 48.132 158.711 48.3973 159.716 48.9279C160.721 49.4586 161.5 50.1924 162.053 51.1295C162.618 52.0666 162.9 53.1449 162.9 54.3642C162.9 55.5836 162.618 56.6618 162.053 57.5989C161.5 58.536 160.721 59.2699 159.716 59.8005C158.711 60.3311 157.543 60.5965 156.21 60.5965ZM156.21 59.9699C156.797 59.9699 157.328 59.7441 157.802 59.2924C158.277 58.8295 158.649 58.1803 158.92 57.3449C159.202 56.4981 159.343 55.5045 159.343 54.3642C159.343 53.2126 159.202 52.2191 158.92 51.3836C158.638 50.5481 158.254 49.9045 157.768 49.4529C157.294 48.99 156.769 48.7586 156.193 48.7586C155.618 48.7586 155.093 48.99 154.618 49.4529C154.144 49.9045 153.766 50.5537 153.484 51.4005C153.202 52.236 153.06 53.2239 153.06 54.3642C153.06 55.5045 153.202 56.4981 153.484 57.3449C153.777 58.1803 154.161 58.8295 154.635 59.2924C155.11 59.7441 155.635 59.9699 156.21 59.9699ZM170.106 60.3594V59.6989C170.444 59.6876 170.676 59.5973 170.8 59.4279C170.924 59.2473 170.986 58.9311 170.986 58.4795V54.0255C170.986 53.5626 170.885 53.2126 170.682 52.9755C170.49 52.7384 170.207 52.6199 169.835 52.6199C169.552 52.6199 169.293 52.7045 169.056 52.8739C168.83 53.032 168.638 53.2691 168.48 53.5852V52.857C168.762 52.3715 169.135 51.9989 169.598 51.7392C170.061 51.4682 170.602 51.3328 171.223 51.3328C172.138 51.3328 172.832 51.5924 173.307 52.1118C173.792 52.6311 174.035 53.3763 174.035 54.3473V58.4795C174.035 58.9311 174.131 59.2473 174.323 59.4279C174.515 59.5973 174.853 59.6876 175.339 59.6989V60.3594C175.169 60.3481 174.932 60.3424 174.627 60.3424C174.334 60.3311 174.007 60.3199 173.645 60.3086C173.295 60.2973 172.945 60.2916 172.595 60.2916C172.121 60.2916 171.647 60.3029 171.173 60.3255C170.698 60.3368 170.343 60.3481 170.106 60.3594ZM164.195 60.3594V59.6989C164.692 59.6876 165.036 59.5973 165.228 59.4279C165.42 59.2473 165.516 58.9311 165.516 58.4795V53.7207C165.516 53.19 165.415 52.8118 165.211 52.586C165.019 52.3602 164.681 52.2416 164.195 52.2303V51.5699C164.455 51.5811 164.698 51.5924 164.923 51.6037C165.161 51.615 165.403 51.6207 165.652 51.6207C166.227 51.6207 166.752 51.6037 167.227 51.5699C167.712 51.5247 168.158 51.4626 168.565 51.3836V58.4795C168.565 58.9311 168.627 59.2473 168.751 59.4279C168.875 59.5973 169.107 59.6876 169.445 59.6989V60.3594C169.208 60.3481 168.869 60.3368 168.429 60.3255C168 60.3029 167.554 60.2916 167.091 60.2916C166.572 60.2916 166.036 60.3029 165.482 60.3255C164.929 60.3368 164.5 60.3481 164.195 60.3594ZM180.627 60.5965C179.769 60.5965 179.03 60.4158 178.409 60.0545C177.788 59.682 177.308 59.157 176.969 58.4795C176.63 57.7908 176.461 56.9723 176.461 56.0239C176.461 55.0416 176.642 54.2005 177.003 53.5005C177.364 52.8005 177.878 52.2642 178.544 51.8916C179.222 51.5191 180.023 51.3328 180.949 51.3328C181.626 51.3328 182.213 51.4344 182.71 51.6376C183.218 51.8408 183.608 52.1231 183.879 52.4844C184.161 52.8457 184.302 53.2691 184.302 53.7545C184.302 54.2287 184.15 54.6295 183.845 54.957C183.551 55.2844 183.139 55.4481 182.609 55.4481C182.247 55.4481 181.954 55.3578 181.728 55.1771C181.502 54.9965 181.389 54.7594 181.389 54.4658C181.389 54.1723 181.474 53.9295 181.643 53.7376C181.813 53.5344 181.976 53.3424 182.134 53.1618C182.304 52.9811 182.388 52.7836 182.388 52.5691C182.388 52.4223 182.326 52.3094 182.202 52.2303C182.089 52.1513 181.926 52.1118 181.711 52.1118C181.067 52.1118 180.559 52.4336 180.187 53.0771C179.814 53.7207 179.628 54.5844 179.628 55.6682C179.628 56.786 179.809 57.6441 180.17 58.2424C180.542 58.8295 181.079 59.1231 181.779 59.1231C182.264 59.1231 182.676 58.9876 183.015 58.7166C183.365 58.4344 183.664 58.0166 183.913 57.4634L184.522 57.7852C184.184 58.7223 183.681 59.4279 183.015 59.9021C182.36 60.365 181.564 60.5965 180.627 60.5965ZM190.51 60.5965C189.584 60.5965 188.777 60.4215 188.088 60.0715C187.41 59.7215 186.88 59.2078 186.496 58.5303C186.112 57.8416 185.92 56.9892 185.92 55.9731C185.92 54.957 186.112 54.1045 186.496 53.4158C186.88 52.7271 187.416 52.2078 188.105 51.8578C188.793 51.5078 189.595 51.3328 190.51 51.3328C191.435 51.3328 192.237 51.5078 192.914 51.8578C193.603 52.2078 194.139 52.7271 194.523 53.4158C194.907 54.1045 195.099 54.957 195.099 55.9731C195.099 56.9892 194.907 57.8416 194.523 58.5303C194.139 59.2078 193.603 59.7215 192.914 60.0715C192.237 60.4215 191.435 60.5965 190.51 60.5965ZM190.51 59.936C190.916 59.936 191.255 59.6199 191.526 58.9876C191.797 58.3553 191.932 57.3505 191.932 55.9731C191.932 54.5618 191.797 53.5457 191.526 52.9247C191.255 52.3037 190.916 51.9932 190.51 51.9932C190.103 51.9932 189.764 52.3037 189.493 52.9247C189.222 53.5457 189.087 54.5618 189.087 55.9731C189.087 57.3505 189.222 58.3553 189.493 58.9876C189.764 59.6199 190.103 59.936 190.51 59.936ZM149.352 83.3594V82.6989C149.826 82.6763 150.176 82.6311 150.402 82.5634C150.627 82.4957 150.774 82.3602 150.842 82.157C150.921 81.9537 150.96 81.6489 150.96 81.2424V73.486C150.96 73.0795 150.921 72.7803 150.842 72.5884C150.763 72.3852 150.61 72.2441 150.385 72.165C150.159 72.086 149.814 72.0408 149.352 72.0295V71.3691C149.702 71.3803 150.142 71.3916 150.672 71.4029C151.214 71.4029 151.886 71.4029 152.688 71.4029C153.004 71.4029 153.331 71.4029 153.67 71.4029C154.02 71.3916 154.342 71.386 154.635 71.386C154.94 71.3747 155.194 71.3691 155.397 71.3691C157.859 71.3691 159.722 71.8545 160.986 72.8255C162.251 73.7965 162.883 75.2191 162.883 77.0932C162.883 78.3916 162.584 79.5094 161.985 80.4465C161.387 81.3836 160.529 82.1061 159.411 82.6142C158.293 83.111 156.95 83.3594 155.381 83.3594C155.076 83.3594 154.714 83.3537 154.297 83.3424C153.879 83.3199 153.343 83.3086 152.688 83.3086C151.931 83.3086 151.248 83.3142 150.639 83.3255C150.04 83.3368 149.611 83.3481 149.352 83.3594ZM155.668 82.7158C156.933 82.7158 157.859 82.2868 158.446 81.4287C159.033 80.5594 159.327 79.1932 159.327 77.3303C159.327 75.4787 159.033 74.1295 158.446 73.2828C157.859 72.4247 156.91 71.9957 155.601 71.9957H154.398V81.2763C154.398 81.6602 154.432 81.9594 154.5 82.1739C154.568 82.3771 154.692 82.5182 154.872 82.5973C155.064 82.6763 155.33 82.7158 155.668 82.7158ZM164.236 83.3594V82.6989C164.733 82.6876 165.077 82.5973 165.269 82.4279C165.461 82.2586 165.557 81.9424 165.557 81.4795V76.7207C165.557 76.2239 165.461 75.857 165.269 75.6199C165.089 75.3715 164.744 75.2416 164.236 75.2303V74.5699C164.473 74.5811 164.705 74.5924 164.931 74.6037C165.168 74.615 165.399 74.6207 165.625 74.6207C166.189 74.6207 166.72 74.6037 167.217 74.5699C167.714 74.5247 168.177 74.4626 168.606 74.3836V81.4795C168.606 81.9537 168.702 82.2755 168.893 82.4449C169.097 82.6029 169.435 82.6876 169.91 82.6989V83.3594C169.729 83.3481 169.492 83.3424 169.198 83.3424C168.905 83.3311 168.577 83.3199 168.216 83.3086C167.866 83.2973 167.505 83.2916 167.132 83.2916C166.602 83.2916 166.054 83.3029 165.489 83.3255C164.936 83.3368 164.518 83.3481 164.236 83.3594ZM166.997 73.0965C166.568 73.0965 166.178 72.9723 165.828 72.7239C165.478 72.4642 165.303 72.0803 165.303 71.5723C165.303 71.0642 165.478 70.686 165.828 70.4376C166.178 70.1779 166.568 70.0481 166.997 70.0481C167.426 70.0481 167.815 70.1779 168.165 70.4376C168.515 70.686 168.69 71.0642 168.69 71.5723C168.69 72.0803 168.51 72.4642 168.148 72.7239C167.798 72.9723 167.414 73.0965 166.997 73.0965ZM174.486 87.407C173.199 87.407 172.216 87.215 171.539 86.8311C170.862 86.4586 170.523 85.9844 170.523 85.4086C170.523 84.9231 170.737 84.4997 171.166 84.1384C171.595 83.7771 172.211 83.4836 173.012 83.2578L173.402 83.4102C173.21 83.6021 173.058 83.8279 172.945 84.0876C172.843 84.3473 172.792 84.6295 172.792 84.9344C172.792 85.5215 172.979 85.9731 173.351 86.2892C173.735 86.6053 174.283 86.7634 174.994 86.7634C175.536 86.7634 176.01 86.6787 176.416 86.5094C176.834 86.34 177.156 86.1029 177.382 85.7981C177.619 85.5045 177.737 85.1602 177.737 84.765C177.737 84.3924 177.608 84.1102 177.348 83.9182C177.1 83.7263 176.721 83.6303 176.213 83.6303H174.35C173.583 83.6303 172.967 83.4779 172.504 83.1731C172.053 82.857 171.827 82.4392 171.827 81.9199C171.827 81.4795 171.979 81.0731 172.284 80.7005C172.589 80.3166 173.069 79.9441 173.724 79.5828L174.266 79.6674C174.108 79.8029 173.989 79.9328 173.91 80.057C173.842 80.1811 173.808 80.311 173.808 80.4465C173.808 80.6723 173.916 80.8473 174.13 80.9715C174.345 81.0957 174.644 81.1578 175.028 81.1578H176.823C177.907 81.1578 178.731 81.3723 179.295 81.8013C179.86 82.2303 180.142 82.8513 180.142 83.6642C180.142 84.4207 179.905 85.0755 179.431 85.6287C178.968 86.1932 178.313 86.6279 177.466 86.9328C176.62 87.2489 175.626 87.407 174.486 87.407ZM174.994 79.7521C173.82 79.7521 172.894 79.515 172.216 79.0408C171.55 78.5553 171.217 77.8892 171.217 77.0424C171.217 76.1957 171.55 75.5352 172.216 75.061C172.883 74.5755 173.803 74.3328 174.977 74.3328C176.14 74.3328 177.043 74.5699 177.687 75.0441C178.33 75.507 178.652 76.1731 178.652 77.0424C178.652 77.9005 178.33 78.5666 177.687 79.0408C177.043 79.515 176.145 79.7521 174.994 79.7521ZM175.011 79.1255C175.35 79.1255 175.615 78.9561 175.807 78.6174C175.999 78.2674 176.095 77.7424 176.095 77.0424C176.095 76.3311 175.999 75.8061 175.807 75.4674C175.626 75.1287 175.366 74.9594 175.028 74.9594C174.689 74.9594 174.424 75.1287 174.232 75.4674C174.051 75.8061 173.961 76.3311 173.961 77.0424C173.961 77.7424 174.051 78.2674 174.232 78.6174C174.412 78.9561 174.672 79.1255 175.011 79.1255ZM180.125 76.7207C179.888 76.7207 179.713 76.6473 179.6 76.5005C179.487 76.3424 179.397 76.1674 179.329 75.9755C179.262 75.7836 179.188 75.6142 179.109 75.4674C179.03 75.3207 178.917 75.2473 178.77 75.2473C178.691 75.2473 178.59 75.2868 178.466 75.3658C178.353 75.4336 178.234 75.5352 178.11 75.6707C177.997 75.8061 177.89 75.9811 177.788 76.1957L177.466 75.6368C177.715 75.2416 178.031 74.9255 178.415 74.6884C178.799 74.4513 179.211 74.3328 179.651 74.3328C180.058 74.3328 180.379 74.4457 180.616 74.6715C180.865 74.886 180.989 75.1908 180.989 75.586C180.989 75.9134 180.91 76.1844 180.752 76.3989C180.594 76.6134 180.385 76.7207 180.125 76.7207ZM186.1 83.5965C185.219 83.5965 184.457 83.4158 183.813 83.0545C183.17 82.682 182.673 82.1513 182.323 81.4626C181.973 80.7739 181.798 79.9497 181.798 78.99C181.798 77.9626 181.99 77.1045 182.374 76.4158C182.769 75.7271 183.311 75.2078 184 74.8578C184.7 74.5078 185.501 74.3328 186.404 74.3328C187.251 74.3328 187.951 74.4795 188.504 74.7731C189.069 75.0666 189.487 75.5182 189.758 76.1279C190.04 76.7376 190.175 77.5223 190.164 78.482H184.05L184.017 77.8384H187.624C187.635 77.2852 187.596 76.7997 187.505 76.382C187.426 75.9529 187.291 75.6199 187.099 75.3828C186.918 75.1344 186.675 75.0102 186.371 75.0102C185.987 75.0102 185.665 75.2416 185.405 75.7045C185.146 76.1674 184.993 76.9126 184.948 77.94L184.982 78.0247C184.971 78.115 184.965 78.211 184.965 78.3126C184.965 78.4142 184.965 78.5497 184.965 78.7191C184.965 79.7803 185.157 80.6158 185.541 81.2255C185.936 81.8239 186.5 82.1231 187.234 82.1231C187.788 82.1231 188.25 81.9876 188.623 81.7166C189.007 81.4457 189.34 81.0279 189.622 80.4634L190.232 80.7852C189.871 81.7223 189.34 82.4279 188.64 82.9021C187.951 83.365 187.104 83.5965 186.1 83.5965ZM195.759 83.5965C195.274 83.5965 194.867 83.5457 194.54 83.4441C194.224 83.3424 193.953 83.2465 193.727 83.1561C193.513 83.0545 193.315 83.0037 193.134 83.0037C192.841 83.0037 192.632 83.1731 192.508 83.5118H191.847C191.881 83.1731 191.898 82.84 191.898 82.5126C191.909 82.1852 191.915 81.8295 191.915 81.4457C191.926 81.0505 191.926 80.5989 191.915 80.0908H192.575C192.813 81.0053 193.179 81.7053 193.676 82.1908C194.173 82.665 194.783 82.9021 195.505 82.9021C195.934 82.9021 196.267 82.8118 196.504 82.6311C196.753 82.4505 196.877 82.1965 196.877 81.8691C196.877 81.5416 196.73 81.265 196.437 81.0392C196.143 80.8134 195.618 80.582 194.862 80.3449C193.857 80.0174 193.117 79.5941 192.643 79.0747C192.169 78.5441 191.932 77.9005 191.932 77.1441C191.932 76.2973 192.209 75.6199 192.762 75.1118C193.326 74.5924 194.083 74.3328 195.031 74.3328C195.494 74.3328 195.889 74.3836 196.217 74.4852C196.544 74.5755 196.821 74.6715 197.046 74.7731C197.272 74.8747 197.464 74.9255 197.622 74.9255C197.746 74.9255 197.848 74.886 197.927 74.807C198.006 74.7166 198.068 74.5868 198.113 74.4174H198.774C198.751 74.6658 198.734 74.9199 198.723 75.1795C198.712 75.4392 198.7 75.7553 198.689 76.1279C198.689 76.4892 198.695 76.9408 198.706 77.4828H198.046C197.809 76.6699 197.464 76.0602 197.013 75.6537C196.561 75.236 196.036 75.0271 195.438 75.0271C195.02 75.0271 194.692 75.1231 194.455 75.315C194.218 75.4957 194.1 75.7553 194.1 76.0941C194.1 76.4441 194.252 76.7376 194.557 76.9747C194.873 77.2005 195.432 77.432 196.234 77.6691C197.204 77.94 197.916 78.3182 198.367 78.8037C198.83 79.2779 199.062 79.9102 199.062 80.7005C199.062 81.615 198.763 82.3263 198.164 82.8344C197.577 83.3424 196.775 83.5965 195.759 83.5965ZM204.466 83.5965C203.551 83.5965 202.857 83.3537 202.383 82.8682C201.909 82.3828 201.672 81.6602 201.672 80.7005V75.2303H200.012V74.5699H201.672V72.2328C202.259 72.2328 202.801 72.1989 203.297 72.1311C203.794 72.0634 204.268 71.9618 204.72 71.8263V74.5699H206.854V75.2303H204.72V81.3441C204.72 81.6715 204.788 81.9142 204.923 82.0723C205.07 82.2191 205.273 82.2924 205.533 82.2924C205.781 82.2924 205.996 82.2191 206.176 82.0723C206.357 81.9255 206.532 81.6941 206.701 81.3779L207.226 81.6828C206.933 82.3602 206.572 82.8513 206.143 83.1561C205.714 83.4497 205.155 83.5965 204.466 83.5965Z" fill="white"/>
</svg>
