<svg width="33" height="33" viewBox="0 0 33 33" fill="none" xmlns="http://www.w3.org/2000/svg">
<path fill-rule="evenodd" clip-rule="evenodd" d="M11.6667 8.23492C11.6667 6.58468 12.2286 5.00203 13.2288 3.83514C14.229 2.66825 15.5855 2.0127 17 2.0127C18.4145 2.0127 19.771 2.66825 20.7712 3.83514C21.7714 5.00203 22.3333 6.58468 22.3333 8.23492C22.3333 9.88515 21.7714 11.4678 20.7712 12.6347C19.771 13.8016 18.4145 14.4571 17 14.4571C15.5855 14.4571 14.229 13.8016 13.2288 12.6347C12.2286 11.4678 11.6667 9.88515 11.6667 8.23492ZM11.6667 17.5683C9.89856 17.5683 8.20286 18.3877 6.95262 19.8463C5.70238 21.3049 5 23.2832 5 25.346C5 26.5837 5.42143 27.7707 6.17157 28.6459C6.92172 29.521 7.93913 30.0127 9 30.0127H25C26.0609 30.0127 27.0783 29.521 27.8284 28.6459C28.5786 27.7707 29 26.5837 29 25.346C29 23.2832 28.2976 21.3049 27.0474 19.8463C25.7971 18.3877 24.1014 17.5683 22.3333 17.5683H11.6667Z" fill="#014739"/>
</svg>
