<svg width="32" height="32" viewBox="0 0 32 32" fill="none" xmlns="http://www.w3.org/2000/svg">
<path d="M8.33333 26C7.69167 26 7.14256 25.7717 6.686 25.3152C6.22944 24.8586 6.00078 24.3091 6 23.6667V7.33333C6 6.69167 6.22867 6.14256 6.686 5.686C7.14333 5.22944 7.69244 5.00078 8.33333 5H24.6667C25.3083 5 25.8578 5.22867 26.3152 5.686C26.7725 6.14333 27.0008 6.69244 27 7.33333V23.6667C27 24.3083 26.7717 24.8578 26.3152 25.3152C25.8586 25.7725 25.3091 26.0008 24.6667 26H8.33333ZM10.6667 21.3333H18.8333V19H10.6667V21.3333ZM10.6667 16.6667H22.3333V14.3333H10.6667V16.6667ZM10.6667 12H22.3333V9.66667H10.6667V12Z" fill="#014739"/>
</svg>
