<svg width="39" height="32" viewBox="0 0 39 32" fill="none" xmlns="http://www.w3.org/2000/svg">
<path d="M16.4697 9.48482C16.6103 9.34416 16.8011 9.26515 17 9.26515C17.1989 9.26515 17.3897 9.34416 17.5303 9.48482C17.671 9.62547 17.75 9.81623 17.75 10.0151C17.75 10.2141 17.671 10.4048 17.5303 10.5455C17.3897 10.6861 17.1989 10.7651 17 10.7651C16.8011 10.7651 16.6103 10.6861 16.4697 10.5455C16.329 10.4048 16.25 10.2141 16.25 10.0151C16.25 9.81623 16.329 9.62547 16.4697 9.48482ZM15.1222 7.35986C14.6218 7.7139 14.2328 8.20142 13.9983 8.76515H13C12.6685 8.76515 12.3505 8.89684 12.1161 9.13126C11.8817 9.36568 11.75 9.68362 11.75 10.0151C11.75 10.3467 11.8817 10.6646 12.1161 10.899C12.3505 11.1334 12.6685 11.2651 13 11.2651H13.9983C14.2328 11.8289 14.6218 12.3164 15.1222 12.6704C15.6713 13.059 16.3274 13.2676 17 13.2676C17.6726 13.2676 18.3287 13.059 18.8778 12.6704C19.3782 12.3164 19.7672 11.8289 20.0017 11.2651H27C27.3315 11.2651 27.6495 11.1334 27.8839 10.899C28.1183 10.6646 28.25 10.3467 28.25 10.0151C28.25 9.68363 28.1183 9.36568 27.8839 9.13126C27.6495 8.89684 27.3315 8.76515 27 8.76515H20.0017C19.7672 8.20142 19.3782 7.7139 18.8778 7.35986C18.3287 6.97134 17.6726 6.7627 17 6.7627C16.3274 6.7627 15.6713 6.97134 15.1222 7.35986ZM22.4697 15.4848C22.6103 15.3442 22.8011 15.2651 23 15.2651C23.1989 15.2651 23.3897 15.3442 23.5303 15.4848C23.671 15.6255 23.75 15.8162 23.75 16.0151C23.75 16.2141 23.671 16.4048 23.5303 16.5455C23.3897 16.6861 23.1989 16.7651 23 16.7651C22.8011 16.7651 22.6103 16.6861 22.4697 16.5455C22.329 16.4048 22.25 16.2141 22.25 16.0151C22.25 15.8162 22.329 15.6255 22.4697 15.4848ZM21.1222 13.3599C20.6218 13.7139 20.2328 14.2014 19.9983 14.7651H13C12.6685 14.7651 12.3505 14.8968 12.1161 15.1313C11.8817 15.3657 11.75 15.6836 11.75 16.0151C11.75 16.3467 11.8817 16.6646 12.1161 16.899C12.3505 17.1334 12.6685 17.2651 13 17.2651H19.9983C20.2328 17.8289 20.6218 18.3164 21.1222 18.6704C21.6713 19.059 22.3274 19.2676 23 19.2676C23.6726 19.2676 24.3287 19.059 24.8778 18.6704C25.3782 18.3164 25.7672 17.8289 26.0017 17.2651H27C27.3315 17.2651 27.6495 17.1334 27.8839 16.899C28.1183 16.6646 28.25 16.3467 28.25 16.0151C28.25 15.6836 28.1183 15.3657 27.8839 15.1313C27.6495 14.8968 27.3315 14.7651 27 14.7651H26.0017C25.7672 14.2014 25.3782 13.7139 24.8778 13.3599C24.3287 12.9713 23.6726 12.7627 23 12.7627C22.3274 12.7627 21.6713 12.9713 21.1222 13.3599ZM16.4697 21.4848C16.6103 21.3442 16.8011 21.2651 17 21.2651C17.1989 21.2651 17.3897 21.3442 17.5303 21.4848C17.671 21.6255 17.75 21.8162 17.75 22.0151C17.75 22.2141 17.671 22.4048 17.5303 22.5455C17.3897 22.6861 17.1989 22.7651 17 22.7651C16.8011 22.7651 16.6103 22.6861 16.4697 22.5455C16.329 22.4048 16.25 22.2141 16.25 22.0151C16.25 21.8162 16.329 21.6255 16.4697 21.4848ZM15.1222 19.3599C14.6218 19.7139 14.2328 20.2014 13.9983 20.7651H13C12.6685 20.7651 12.3505 20.8968 12.1161 21.1313C11.8817 21.3657 11.75 21.6836 11.75 22.0151C11.75 22.3467 11.8817 22.6646 12.1161 22.899C12.3505 23.1335 12.6685 23.2651 13 23.2651H13.9983C14.2328 23.8289 14.6218 24.3164 15.1222 24.6704C15.6713 25.059 16.3274 25.2676 17 25.2676C17.6726 25.2676 18.3287 25.059 18.8778 24.6704C19.3782 24.3164 19.7672 23.8289 20.0017 23.2651H27C27.3315 23.2651 27.6495 23.1335 27.8839 22.899C28.1183 22.6646 28.25 22.3467 28.25 22.0151C28.25 21.6836 28.1183 21.3657 27.8839 21.1313C27.6495 20.8968 27.3315 20.7651 27 20.7651H20.0017C19.7672 20.2014 19.3782 19.7139 18.8778 19.3599C18.3287 18.9713 17.6726 18.7627 17 18.7627C16.3274 18.7627 15.6713 18.9713 15.1222 19.3599Z" fill="#014739" stroke="#014739" stroke-width="0.5"/>
</svg>
