<svg width="39" height="32" viewBox="0 0 39 32" fill="none" xmlns="http://www.w3.org/2000/svg">
<path d="M23.259 20.8L19.5 18.5L15.741 20.8L16.875 16.68L13.4205 14L17.883 13.74L19.5 9.8L21.117 13.74L25.5795 14L22.125 16.68M27.9 16C27.9 15.4696 28.1212 14.9609 28.5151 14.5858C28.9089 14.2107 29.443 14 30 14V10C30 9.46957 29.7787 8.96086 29.3849 8.58579C28.9911 8.21071 28.457 8 27.9 8H11.1C10.543 8 10.0089 8.21071 9.61508 8.58579C9.22125 8.96086 9 9.46957 9 10V14C9.55695 14 10.0911 14.2107 10.4849 14.5858C10.8788 14.9609 11.1 15.4696 11.1 16C11.1 16.5304 10.8788 17.0391 10.4849 17.4142C10.0911 17.7893 9.55695 18 9 18V22C9 22.5304 9.22125 23.0391 9.61508 23.4142C10.0089 23.7893 10.543 24 11.1 24H27.9C28.457 24 28.9911 23.7893 29.3849 23.4142C29.7787 23.0391 30 22.5304 30 22V18C29.443 18 28.9089 17.7893 28.5151 17.4142C28.1212 17.0391 27.9 16.5304 27.9 16Z" fill="#014739"/>
</svg>
