<svg width="39" height="32" viewBox="0 0 39 32" fill="none" xmlns="http://www.w3.org/2000/svg">
<path d="M17 9.81334V8.38477H21V9.81334H17ZM18.3333 17.6705H19.6667V13.3848H18.3333V17.6705ZM19 23.3848C18.1778 23.3848 17.4027 23.2152 16.6747 22.8762C15.9467 22.5371 15.3107 22.0757 14.7667 21.4919C14.2227 20.9081 13.7922 20.2264 13.4753 19.4469C13.1584 18.6674 13 17.8371 13 16.9562C13 16.0752 13.1584 15.2448 13.4753 14.4648C13.7922 13.6848 14.2227 13.0033 14.7667 12.4205C15.3107 11.8376 15.9469 11.3764 16.6753 11.0369C17.4038 10.6974 18.1787 10.5276 19 10.5276C19.6889 10.5276 20.35 10.6467 20.9833 10.8848C21.6167 11.1229 22.2111 11.4681 22.7667 11.9205L23.7 10.9205L24.6333 11.9205L23.7 12.9205C24.1222 13.5157 24.4444 14.1526 24.6667 14.8312C24.8889 15.5098 25 16.2181 25 16.9562C25 17.8371 24.8416 18.6676 24.5247 19.4476C24.2078 20.2276 23.7773 20.909 23.2333 21.4919C22.6893 22.0748 22.0531 22.5362 21.3247 22.8762C20.5962 23.2162 19.8213 23.3857 19 23.3848Z" fill="#014739"/>
</svg>
