<svg width="32" height="32" viewBox="0 0 32 32" fill="none" xmlns="http://www.w3.org/2000/svg">
<path d="M8.96154 8C8.17609 8 7.42281 8.35659 6.86741 8.99133C6.31202 9.62607 6 10.487 6 11.3846V20.6154C6 21.513 6.31202 22.3739 6.86741 23.0087C7.42281 23.6434 8.17609 24 8.96154 24H18.1154C18.9008 24 19.6541 23.6434 20.2095 23.0087C20.7649 22.3739 21.0769 21.513 21.0769 20.6154V18.6535L24.7589 22.4012C25.6258 23.2837 27 22.5797 27 21.2517V10.2954C27 8.96615 25.6258 8.26338 24.7589 9.14585L21.0769 12.8935V11.3846C21.0769 10.487 20.7649 9.62607 20.2095 8.99133C19.6541 8.35659 18.9008 8 18.1154 8H8.96154Z" fill="#014739"/>
</svg>
