<svg width="39" height="32" viewBox="0 0 39 32" fill="none" xmlns="http://www.w3.org/2000/svg">
<path d="M19 13.7279C18.4213 13.7279 17.8664 13.9808 17.4572 14.4309C17.0481 14.881 16.8182 15.4914 16.8182 16.1279C16.8182 16.7644 17.0481 17.3749 17.4572 17.825C17.8664 18.2751 18.4213 18.5279 19 18.5279C19.5787 18.5279 20.1336 18.2751 20.5428 17.825C20.9519 17.3749 21.1818 16.7644 21.1818 16.1279C21.1818 15.4914 20.9519 14.881 20.5428 14.4309C20.1336 13.9808 19.5787 13.7279 19 13.7279ZM19 20.1279C18.0356 20.1279 17.1107 19.7065 16.4287 18.9564C15.7468 18.2062 15.3636 17.1888 15.3636 16.1279C15.3636 15.0671 15.7468 14.0496 16.4287 13.2995C17.1107 12.5494 18.0356 12.1279 19 12.1279C19.9644 12.1279 20.8893 12.5494 21.5713 13.2995C22.2532 14.0496 22.6364 15.0671 22.6364 16.1279C22.6364 17.1888 22.2532 18.2062 21.5713 18.9564C20.8893 19.7065 19.9644 20.1279 19 20.1279ZM19 10.1279C15.3636 10.1279 12.2582 12.6159 11 16.1279C12.2582 19.6399 15.3636 22.1279 19 22.1279C22.6364 22.1279 25.7418 19.6399 27 16.1279C25.7418 12.6159 22.6364 10.1279 19 10.1279Z" fill="#014739"/>
</svg>
