<svg width="32" height="32" viewBox="0 0 32 32" fill="none" xmlns="http://www.w3.org/2000/svg">
<path d="M2.6665 25.3332C2.6665 27.5998 4.39984 29.3332 6.6665 29.3332H25.3332C27.5998 29.3332 29.3332 27.5998 29.3332 25.3332V14.6665H2.6665V25.3332ZM25.3332 5.33317H22.6665V3.99984C22.6665 3.19984 22.1332 2.6665 21.3332 2.6665C20.5332 2.6665 19.9998 3.19984 19.9998 3.99984V5.33317H11.9998V3.99984C11.9998 3.19984 11.4665 2.6665 10.6665 2.6665C9.8665 2.6665 9.33317 3.19984 9.33317 3.99984V5.33317H6.6665C4.39984 5.33317 2.6665 7.0665 2.6665 9.33317V11.9998H29.3332V9.33317C29.3332 7.0665 27.5998 5.33317 25.3332 5.33317Z" fill="#014739"/>
</svg>
