<svg width="32" height="32" viewBox="0 0 32 32" fill="none" xmlns="http://www.w3.org/2000/svg">
<path fill-rule="evenodd" clip-rule="evenodd" d="M3 16.3333C3 8.96933 8.96933 3 16.3333 3C23.6973 3 29.6667 8.96933 29.6667 16.3333C29.6667 23.6973 23.6973 29.6667 16.3333 29.6667C8.96933 29.6667 3 23.6973 3 16.3333ZM20.3333 12.3333L15.4093 13.3187C14.8935 13.422 14.4197 13.6757 14.0477 14.0477C13.6757 14.4197 13.422 14.8935 13.3187 15.4093L12.3333 20.3333L17.2573 19.348C17.7734 19.2449 18.2475 18.9913 18.6197 18.6193C18.992 18.2472 19.2459 17.7734 19.3493 17.2573L20.3333 12.3333Z" fill="#014739"/>
</svg>
