<svg width="40" height="32" viewBox="0 0 40 32" fill="none" xmlns="http://www.w3.org/2000/svg">
<path d="M14.3288 2.6665H25.6713C26.0483 2.6665 26.3376 2.6665 26.5911 2.6865C28.3916 2.83184 29.8655 3.71984 30.4911 4.91584H9.50908C10.1347 3.71984 11.6086 2.83184 13.4091 2.6865C13.6593 2.6665 13.9486 2.6665 14.3288 2.6665ZM10.7538 6.29717C8.49508 6.29717 6.64258 7.41717 6.02508 8.9025L5.98608 8.99584C6.63283 8.83584 7.30721 8.72917 7.98808 8.6585C9.74308 8.47317 11.9628 8.47317 14.5401 8.47317H25.7396C28.3168 8.47317 30.535 8.47317 32.2916 8.6585C32.9741 8.7305 33.6468 8.8345 34.2936 8.99584L34.2562 8.9025C33.6387 7.41717 31.7862 6.29717 29.5258 6.29717H10.7538Z" fill="#014739"/>
<path fill-rule="evenodd" clip-rule="evenodd" d="M14.592 10.0557H25.408C30.8908 10.0557 33.6338 10.0557 35.1743 11.3717C36.7148 12.6877 36.3508 14.7197 35.626 18.785L34.9403 22.641C34.3715 25.829 34.0872 27.4237 32.6295 28.3783C31.1719 29.333 29.022 29.333 24.7207 29.333H15.2794C10.9797 29.333 8.82817 29.333 7.37055 28.3783C5.91292 27.4237 5.62855 25.829 5.0598 22.641L4.37405 18.7863C3.64767 14.7197 3.2853 12.6877 4.8258 11.3717C6.3663 10.0557 9.1093 10.0557 14.592 10.0557ZM13.5 23.9997C13.5 23.4477 14.1062 22.9997 14.8537 22.9997H25.1464C25.8939 22.9997 26.5 23.4477 26.5 23.9997C26.5 24.5517 25.8939 24.9997 25.1464 24.9997H14.8537C14.1062 24.9997 13.5 24.5517 13.5 23.9997Z" fill="#014739"/>
</svg>
